/* XPM */
static char *_f4acae4224544b2c675a02c965e6de6bbptPmI6fuPhEtU8[] = {
/* columns rows colors chars-per-pixel */
"64 64 123 2 ",
"   c None",
".  c #7D643F",
"X  c #0D3E66",
"o  c #103F65",
"O  c #24465E",
"+  c #28475D",
"@  c #27485F",
"#  c #2D495B",
"$  c #3A4D57",
"%  c #344B59",
"&  c #3D535D",
"*  c #0F4066",
"=  c #124065",
"-  c #1C4362",
";  c #204561",
":  c #254963",
">  c #2C4C62",
",  c #304E62",
"<  c #365161",
"1  c #3C5361",
"2  c #53564E",
"3  c #58574C",
"4  c #5B584B",
"5  c #445153",
"6  c #495455",
"7  c #44555C",
"8  c #46585F",
"9  c #4A5A5F",
"0  c #545952",
"q  c #595E56",
"w  c #515E5E",
"e  c #6E5F44",
"r  c #645B48",
"t  c #715F44",
"y  c #56605D",
"u  c #5B625D",
"i  c #6B624D",
"p  c #736142",
"a  c #7B6340",
"s  c #7E6947",
"d  c #756549",
"f  c #786649",
"g  c #7A6748",
"h  c #78694D",
"j  c #7B6C4F",
"k  c #656355",
"l  c #6A6350",
"z  c #6F6752",
"x  c #63665C",
"c  c #66675B",
"v  c #69695B",
"b  c #6E6B5A",
"n  c #6B695B",
"m  c #726A55",
"M  c #7D6D50",
"N  c #7C6E52",
"B  c #736D58",
"V  c #726C59",
"C  c #736D59",
"Z  c #716C5A",
"A  c #776F59",
"S  c #726C59",
"D  c #7F7156",
"F  c #7C7159",
"G  c #7C7259",
"H  c #7E7258",
"J  c #415660",
"K  c #435860",
"L  c #445860",
"P  c #455860",
"I  c #816944",
"U  c #816945",
"Y  c #826A47",
"T  c #836B47",
"R  c #846C47",
"E  c #826A48",
"W  c #836B48",
"Q  c #836C49",
"!  c #836D49",
"~  c #846C48",
"^  c #846E49",
"/  c #846E4A",
"(  c #856E4A",
")  c #866F4B",
"_  c #826F4D",
"`  c #866F4C",
"'  c #866F4C",
"]  c #87714D",
"[  c #87714D",
"{  c #8A724D",
"}  c #8B734D",
"|  c #88724E",
" . c #806F51",
".. c #817356",
"X. c #847355",
"o. c #867657",
"O. c #877657",
"+. c #857557",
"@. c #8A7450",
"#. c #8C7651",
"$. c #887654",
"%. c #897757",
"&. c #8A7553",
"*. c #897857",
"=. c #8B7856",
"-. c #8C7855",
";. c #8D7855",
":. c #8D7955",
">. c #8F7954",
",. c #8E7855",
"<. c #8E7955",
"1. c #8F7955",
"2. c #8C7856",
"3. c #8D7956",
"4. c #8E7956",
"5. c #8E7A56",
"6. c #8C7856",
"7. c #837558",
"8. c #847558",
"9. c #807358",
"0. c #887758",
"q. c #907A55",
"w. c #907A55",
/* pixels */
"      X X X X o o X X X                                                                                 X * X X X X X           ",
"      : > > > : + + + +                                                                                 > > > @ O + +           ",
"X X = 1 x F O.j f t r 2 + = X o                                                               * X o > P A 7.D j p p 4 % - X X X ",
"o X X & k  .{ ) I . t 3 + X = X                                                               * X = : P M { ) Y a . r % - X X o ",
"X X = % 4 p a a a . t 3 + X * X                                                               * X X O 5 p a a a a . r $ - X X X ",
"X X X % 4 p a a . . t 3 + X X X X                                                             * X o O 5 p a a a a a r % - X X X ",
"X X X % 4 p a a a a t 3 + X X * = = = = o X o o = = = = = = X = X o = = = o = = * * = = = = = = X X + 5 e a a a a . r $ = X X X ",
"X X X % 4 p a a . a t 3 + o o > 8 w y y y y y w y y y y y y y y y y y y y y y y w w y y y y P > = o O 5 e a a a a . r % - X X X ",
"X X o % 3 t . a a a t 3 + o o & C O.5.5.5.*.*.5.2.5.2.2.2.5.2.2.5.5.5.5.,.2.2.2.,.,.,.q.5.q.V 7 : = O 5 e . p . a . r $ - X X X ",
"X X = % 4 e . . . a t 3 + X = 7 C *.5.{ ` E E E Y Y Y E E E E E Y Y Y Y Y E Y Y Y Y Y Y R E i 5 - X - 5 e . . a a . r % - X X X ",
"X X = % 4 . . . a a t 3 + X = 1 v F ..j d p e e t t e e t t e t e e t e t t t t e p t p t t r $ - X - 5 e . a a . . r $ - X X X ",
"X X o % 3 e . . a a t 3 + X * - : : > > + + + + + + O + + + + : + + + + O O : : : + + + + + ; = = = O 5 e . a . a . r $ = X X X ",
"X X X # 4 p . . a a t 3 + X X X o X X X X X X X X X X X X X X X X X X X X X X X X X X X X X X = X X O 5 t . . a . . r % - X X X ",
"X X o % 4 p . . a a t 3 + o * X                                                               X X X O 5 e . a a . . r $ - X X X ",
"X X = % 4 t . a a a t 3 + X X X                                                               o X = O 5 e . a a . . r % - X X X ",
"X X * % 4 t . a . a t 2 + X X X                                                               X X X - 5 e . a a . . r % - = X X ",
"X X X % 4 t . . . . t 3 + X X X                                                               * X X O 5 t . a a . . r $ - X X X ",
"X X X % 4 p . . . a t 3 + X o o o o * = X * * X X X X X X o o o = X X X = X * * o o = = = * * * X X ; 5 t . a a a . r $ - X X X ",
"X X X % 3 t . a . a t 3 + X o : 1 P P P P P P P 9 9 9 9 9 P 9 9 P 9 9 9 9 P 9 9 P P 8 7 8 9 & > = X O 5 p a . p a . r $ = X X X ",
"X X X % 4 t . . . a t 3 + X = J Z 8.w.5.5.2.5.q.5.*.5.5.5.2.5.2.5.5.2.2.5.5.5.5.5.5.2.5.5.5.B 8 ; X O 5 e . . . a . r % - X X X ",
"X X o % 4 e . . a a t 3 + o = J B *.5.} { ) Q Q Q Q Q R Q ) Q Q Q Q Q Q s Q Q ^ Q Q Q Q Q Q i 7 ; = O 5 e . a a . . r $ - X X X ",
"X X = % 4 . . . a a t 3 + o = 1 b 7.*.D f p p p . p p p p p p p p a a p e . p p p a p p p . r $ ; * - 5 e . a . . . r % - X X X ",
"X X = % 3 t . . a a t 3 + o o - > < < % % # # % # # # # # % % # % # % # # % # # # # % # # # + - X * O 5 e . . . . . r $ = X X X ",
"X X = % 4 t . a a a t 4 + X o X X X X X X X X X X X X X X X X X X X X X X X X X X X X * X X X X X = O 5 e . p . . . r $ - X X X ",
"X X X # 4 p . a a a t 3 + X o o                                                               o X = - 5 e . . . . . r $ - X X X ",
"X X X % 3 p . . . a t 3 + o o X                                                               o X = O 5 e . a p . . r % - X X X ",
"X X = % 4 p . a . a t 3 + X X X                                                               X X X O 5 e . . . . . r % - X X X ",
"X X = % 3 e a . . a t 3 + o o X                                                               X X X - 5 p . . p p . r % - X X X ",
"X X X % 4 p . . . a t 3 + X X X X X X X o X X X X o X X X X X o X X X X X X X X X X X X * * * X X X O 5 e . . . . . r $ - X X X ",
"X X X % 3 p . a . a t 3 + X o ; , < 1 1 1 1 1 1 1 1 1 1 1 1 1 1 1 1 1 1 1 1 1 1 1 1 1 1 1 1 < : = X O 5 e . . . . . r $ - X X X ",
"X X X % 4 p . a a a t 3 + X o & b 7.*.*.%.%.2.%.%.%.%.2.%.2.%.%.%.2.%.2.%.2.%.%.%.2.%.%.*.5.C K - X ; 5 e . . . . . r $ = X X X ",
"X X X % 4 p . . a a t 3 + X = 7 C *.q.#.{ ) ) ` ` ` ) ` ` ` ) ` ` ` ` ` ` ` ` ` ` ) ) ) ] ) d 7 - X ; 5 r . . . . . r % - X X X ",
"X X o % 4 t . . a a t 3 : o = 1 V %.%.` s a p a f a a a a a p a a a a a p a f t a a p a a a r $ ; = O 5 e . p . a . r % ; * X X ",
"X X o % 4 t . a a . t 3 + o = : 1 J J J $ $ $ $ $ $ % $ $ $ $ $ $ $ $ $ $ $ 5 $ $ $ $ $ $ $ % ; = * ; 5 e . . . a . r $ - X X X ",
"X X o % 4 p . a . a t 3 + o o X X X X X X X X X X X X X X X X X X X X X X X X X X X X X X X X = X X ; 5 e . . p a . 4 % - X X X ",
"X X X % 4 p . . a a t 3 + o X X                                                               X X = ; 5 e . . . . . r % - * X * ",
"X X X # 4 p . . . a t 3 + X X X                                                               * X X O 5 e . p . . . r $ - X X X ",
"X X o % 4 t . . a a t 3 + X o X                                                               X X = O 5 p . . . . . r $ - X X X ",
"o X o % 4 t . . a a t 3 + X o *                                                               * X X O $ e . . . . . r $ = X X X ",
"X X o % 4 t . . . a t 3 : X o X X X X X X X X X X X o o X X X * X * X X X X X X X X X X X X X * X X O 5 e . . . . . r $ - X X X ",
"X X o % 3 t . . . a t 2 + X o - > > > , , , , , , > > , , > > > > , , , > > > > < > , > > > > - o X ; 5 e . . p . . r % ; X X X ",
"X X o % 4 t . . . a t 3 + o o 1 v G 8.8.O.7.7.7.7.8.*.%.O.O.O.8.8.%.8.%.O.7.O.O.7.O.O.O.O.*.B 7 ; X O 5 e . . . . . r $ - X X X ",
"X X X % 3 t . . . . t 3 + o o J C %.q.#.@.@.[ [ { [ { } { [ [ @.[ @.@.{ } @.{ { [ @.[ [ { { m 7 ; = O 5 e . . . . . r % = X X X ",
"X X X % 4 t . . . . t 3 + X = 7 Z %.5.` s a a a a a a . a a a a a a a a a a a a a a a a a a r $ - X - 5 e . . t p . r % - X X X ",
"o X o % 4 p . . a a t 3 + X o : 7 9 w 9 5 5 5 5 5 5 5 5 5 5 5 6 5 5 5 5 5 5 5 5 5 5 5 5 5 5 $ + = = + 5 e . . . . . r % - X X X ",
"X X o % 4 p . . . a t 3 + X o * X X o * = = = = o o = o o X X X o = = = o = = = * * X = = = X = * = - 5 e . . . . . r $ - X X X ",
"X X o % 3 p . . a a p 2 + = X X X                                                             X X X O 5 e . . . . . r % - X X X ",
"X X X % 4 t . . a a t 4 + X o X                                                               = X X O 5 e . p . . . r $ - * X X ",
"X X X # 4 p . . . a t 3 + o o X                                                               X X X O 5 e . . a a . r $ - X X X ",
"X X o % 4 p . . . a t 3 + X X o                                                               X X X ; 5 e . . a . . r $ - X X X ",
"o X o % 4 p . t . a e 3 + o o X X X X X X X X X X X X X o o X X X X X X X X X X X X X o o X X X X X O 5 e . p . a . r % - X X X ",
"X X o % 4 t . . . a t 3 + o o o - : : : : : : : : : : : : : : : : : : : : : : : : : : : : : : = X X ; 5 e . . . a . r % = X X X ",
"X X o % 4 t . . . a t 3 + o o $ c F 9.9.9.9.9.9.9.F F F 9.9.F 9.G 9.9.9.9.9.9.9.F 9.9.F 9.9.v 7 - = - 5 e . . p . . r $ - X X X ",
"X X X % 4 p . . a . t 3 + o = J C 0.4.2.X.@.@.X.@.@.@.@.@.@.@.X.X.@.@.@.@.X.| | #.@.@.@.#.} m 8 ; * O 5 p . . . p . r $ - X X X ",
"X X X % 4 p . . a . t 3 + o = J C 2.2.| E a a a a U a a a a a a a a a a a a f a a a a a . a r 5 ; = O 5 e . . . . . r $ = X X X ",
"X X X % 3 p . . a a t 2 + o o > P q x q 0 2 2 2 2 2 2 2 2 2 0 2 0 2 2 2 2 2 2 2 2 2 2 2 2 6 5 # = X ; 5 e . . . . . r $ - X X X ",
"X X o % 4 t . a a . t 3 + X X X * * * * = o o o o o * o o o * o X o o o * o o o = = = o o o = X X = - 5 e . a a . . r $ - X X X ",
"X X o % 4 p . a a a t 3 + o o o o o o o o o X X X X X X o o o o X X X o o X X o = X X X X X X X X X O 5 e . . a . . r % - X X X ",
"X X o % 4 p a . a a t 3 + X X X                                                               X X X ; 5 e . a a . . 4 $ - X X X ",
"X X o $ 4 p a a a . t 3 + X X X                                                               = X X O 5 e . a a . . r % - X X X ",
"X X X % 4 p . . a a t 3 + o X o                                                               X X X O 5 p a a a . . r $ - X X X ",
"X X X % 3 p . . a a t 3 + o o X                                                               o X X O 5 p . a a a . r % - X X X ",
"X X o % 4 p . a a a t 3 + X X X                                                               X X X O 5 p a a a . . r $ - X X X ",
"                                                                                                                                "
};
