/* XPM */
static char *c18e6d9fa99342b5ec1ced0a09723ef1GklPcIuIlLCNRwjq[] = {
/* columns rows colors chars-per-pixel */
"100 39 146 2 ",
"   c None",
".  c #157A66",
"X  c #187966",
"o  c #157D69",
"O  c #1C7C6A",
"+  c #4D7F7E",
"@  c #5F757D",
"#  c #547C7E",
"$  c #597A7F",
"%  c #6E6F7E",
"&  c #7C677D",
"*  c #746A7C",
"=  c #7B697E",
"-  c #62747E",
";  c #6B717E",
":  c #875F7B",
">  c #8E5C7B",
",  c #9C567B",
"<  c #82657D",
"1  c #16826D",
"2  c #18826E",
"3  c #178C75",
"4  c #1B8B75",
"5  c #1B8F78",
"6  c #17937B",
"7  c #1A967E",
"8  c #18987F",
"9  c #24816F",
"0  c #248170",
"q  c #258976",
"w  c #248E7A",
"e  c #298B78",
"r  c #358F7E",
"t  c #23927E",
"y  c #44847F",
"u  c #4A807F",
"i  c #547E80",
"p  c #5A7D82",
"a  c #756F80",
"s  c #7C6C80",
"d  c #667680",
"f  c #6C7481",
"g  c #667B85",
"h  c #6A7984",
"j  c #727382",
"k  c #806980",
"l  c #1C9780",
"z  c #1C9A82",
"x  c #3C8C82",
"c  c #229681",
"v  c #299583",
"b  c #239B85",
"n  c #299B86",
"m  c #269F89",
"M  c #2D9D8A",
"N  c #339485",
"B  c #3D9385",
"V  c #309F8B",
"C  c #399D8E",
"Z  c #3B9F91",
"A  c #1BA187",
"S  c #17A588",
"D  c #1BA48A",
"F  c #1DA98E",
"G  c #1CAD91",
"H  c #1EB295",
"J  c #1EB89A",
"K  c #22A48B",
"L  c #2BA28D",
"P  c #22A88E",
"I  c #23AC92",
"U  c #2CA993",
"Y  c #35A492",
"T  c #24B195",
"R  c #27B498",
"E  c #20BA9C",
"W  c #2DBA9E",
"Q  c #21BFA0",
"!  c #458682",
"~  c #4D8683",
"^  c #438B84",
"/  c #488B86",
"(  c #448F88",
")  c #4C8F8A",
"_  c #548485",
"`  c #5C8286",
"'  c #5B878A",
"]  c #558A8A",
"[  c #5B888A",
"{  c #449787",
"}  c #42948A",
"|  c #4B938D",
" . c #439C8E",
".. c #4D9E8F",
"X. c #50908C",
"o. c #44A694",
"O. c #4BA796",
"+. c #56A999",
"@. c #5AAE9F",
"#. c #6FB1A5",
"$. c #6FB7AA",
"%. c #71B2A6",
"&. c #70B7AA",
"*. c #70B8AA",
"=. c #22C3A4",
"-. c #2BC0A2",
";. c #24CCAA",
":. c #2ECCAD",
">. c #30C7A9",
",. c #32C8AA",
"<. c #26D3B0",
"1. c #29D3B1",
"2. c #2DD4B3",
"3. c #32D1B2",
"4. c #32D2B2",
"5. c #30D7B7",
"6. c #3AD5B7",
"7. c #30D8B7",
"8. c #3BD6B8",
"9. c #32DBB9",
"0. c #33DBB9",
"q. c #33DBBA",
"w. c #34DBB9",
"e. c #34DAB9",
"r. c #34DBBA",
"t. c #35DBBA",
"y. c #36DBBB",
"u. c #33DCBA",
"i. c #34DCBA",
"p. c #34DCBB",
"a. c #39DABA",
"s. c #3CD9BA",
"d. c #3CDABB",
"f. c #3BDCBC",
"g. c #87BFB5",
"h. c #85C1B6",
"j. c #86C1B6",
"k. c #86C2B6",
"l. c #87C2B6",
"z. c #87C2B7",
"x. c #88C3B7",
"c. c #92C5BC",
"v. c #93C6BC",
"b. c #97C8BF",
"n. c #99C9C0",
"m. c #99CAC0",
/* pixels */
"                                                                                                                                                                                                        ",
"                                                                                                                                                                                                        ",
"                                                                                                                                                                                                        ",
"                                                                                                                                                                                                        ",
"                                                                                                                                                                                                        ",
"                              d.i.9.9.9.9.i.i.9.9.i.9.9.i.i.9.9.r.i.9.9.i.i.r.i.9.9.r.i.p.9.p.9.p.r.9.9.p.p.9.9.i.i.9.7.r.i.r.9.9.9.p.9.9.i.p.9.i.9.9.9.9.9.9.9.r.r.r.f.                                ",
"                        8.5.1.;.J H H F G H H F H F H F H F H G G G H G G G G G G H G G G G G G G G G G G H G G G G H G G G G G G G G H G G G G G G G H G G G G G H E ;.1.2.f.                          ",
"                    8.2.=.F 6 4 q r B { { { { { { { { { { { { { { { { { { { { { { { { { { { { { { { { { { { { { { { { { { { { { { { { { { { { { { { { { { { { { B r q 4 7 G ;.2.6.                      ",
"                  4.;.F 3 e ..%.g.c.b.n.n.n.n.n.n.n.n.n.n.n.n.n.n.m.m.m.n.n.n.m.m.m.m.m.n.n.n.m.m.m.n.n.n.n.n.n.n.n.n.n.n.n.n.n.n.n.n.m.m.m.n.n.n.n.n.n.n.n.n.n.b.v.x.%...e 5 G ;.4.                    ",
"                :.=.8 4  .*.h.x.l.l.l.l.l.l.k.k.z.z.z.z.z.z.g.g.l.l.h.l.l.l.l.l.l.h.h.l.z.z.z.z.l.l.l.l.l.l.l.l.k.k.k.k.k.k.k.k.l.l.l.l.h.l.l.l.*.n.*.n.h.h.h.h.x.x.l.x.x.*...q z =.:.                  ",
"              :.E 6 w +.&.*.&.*.*.&.&.*.$.$.$.$.$.$.&.&.$.&.&.&.$.$.$.$.*.*.*.&.$.$.$.$.$.&.*.&.$.$.*.$.$.*.*.*.$.*.*.$.*.*.*.*.&.&.&.&.$.$.$.$.*.*.&.&.&.&.$.$.&.&.&.*.*.*.*.+.t 8 =.:.                ",
"            ,.Q z w O.@.@.@.@.@.@.@.@.@.@.@.@.@.@.@.@.@.@.@.@.@.@.@.@.@.@.@.@.@.@.@.@.@.@.@.@.@.@.@.@.@.@.@.@.@.@.@.@.@.@.@.@.@.@.@.@.@.@.@.@.@.@.@.@.@.@.@.@.@.@.@.@.@.@.@.@.@.O.t z E ,.              ",
"            =.A 3 C o.o.o.o.o.o.o.o.o.o.o.o.o.o.o.o.o.o.o.o.o.o.o.o.o.o.o.o.o.o.o.o.o.o.o.o.o.o.o.o.o.o.o.o.o.o.o.o.o.o.o.o.o.o.o.o.o.o.o.o.o.o.O.o.o.o.o.o.o.o.o.o.o.o.o.o.o.o.o.C 7 F -.              ",
"          -.T 6 t L V V V V V M V V V V V V M V M V V V M n M M V V V V V V V V V V V M V V V V L V V V V V V V V V V V V L V V V V V V V V V M Y L V L M M L C V V V V V V V M V V t 6 H -.            ",
"          E A 7 7 7 z b 7 b 7 t z l z z z c l z l l z z l l l l z l z l z l z c z l c l z z l c z z b 7 z l z z l l c z b z z c l z l c z c l l l l c l z l l l z z c z 7 b 7 b 7 t z 6 A E             ",
"        -.T 7 7 7 7 7 7 7 8 8 8 l 7 l 6 l l l l l l l l l l l l t t 7 7 7 l t t w c l l t t t w t w t 7 t 7 7 7 t t 7 7 6 7 t 7 7 l l 7 l z l l l l l l l l l l 7 7 7 7 8 7 7 7 7 7 8 8 z H W           ",
"        R F z z z z z z z z z z z z z z z z z z z z z z z z c d a a a i l c s s * * f v i s s k & * x + i z l # * * * i l z @ * l z z d x l z z z z z l z z z l z z z z z z z z z z z z z F R           ",
"        T D A z z A z A A z z z A z z z z S z z z z A z D z a f v c y s y c s x c v a p l l i k N c z $ d z i & x v x s i z d > i z A j x z A z z A A z z z A A S z z z z A z z A z z z A F I           ",
"        I D A A A A A A A A A D A A A A D z S D A A D A D N k n l z D p f l s x z z ~ j z S x s n D S p d m & ^ S A S x < m d p a N z f x D A D D D D D D D D A D S A D S D z D A A A D A S I           ",
"        P D D F D F D F S F F S F F F D F S F F F D D K S / s A S D D x s M s i N N a i S S N s m S F p d N < M F A F n k N f ! i f K j x F D D D S D D D D D K D D D D F F F A F F F D D F P           ",
"        F F F F F F F F F P F F F F F F F F F F F F F F F / s K G G S / s L k s h j ] K F F N s L F G p g M k V F F F V < M d / K a / f ( F F F G F F F F F F F F F F F G G F F F F F F F D K           ",
"        K D F F G F F G F G G F G G G G G G F G G G I G G L k B G G G j p I s C G G G G G G C s K G G ` h G j ` G G G ] a I d ) G C s s B G G G F G G F I G G G G G G G G I G I G G G G G F K           ",
"        K A H H H H H H H H G H G T H H H H H G G H H G H H ) s g ] j j U I s Z H G H H H H C s U H H ` h H Z s g ] g s Z H h | H G j k } J G H H G G G H H G H H H T G G G H H H H G I H S b           ",
"        t A H T H H H T H H H H H H H H H H H R H J T H J H J Z X.' | R H T X.U H J H H H H U | T H H Y  .H H U ) ' X.U H H  .Y H J Z ] Y J J H H J R J H H J T H R H H E H H H H H H H H z b           ",
"          7 T E J E J E E E E E E H Q H J J J J J H Q R E J E J J J J J J J J J J J J E J J J E J J H J J E J J J J J J J J J J J E J J J E J J Q H J E J J J E J J E E J E J J J E E E G 8             ",
"          7 A E E E E E E E E E E Q Q Q E J E E Q E E E J J E E J Q E Q E E E E E J Q J E E E Q E Q E E E E E E E E E E E E Q Q E E E E E E E E J Q Q Q E E E E E E E E E E E Q J J E E A t             ",
"          t 6 T =.E E =.E =.Q =.Q Q Q Q E =.=.E =.E =.Q Q Q Q =.Q Q Q Q Q Q Q Q Q Q Q Q Q Q =.Q =.Q E =.=.Q =.E Q Q Q =.Q Q Q Q Q Q Q =.Q Q Q Q Q Q Q Q Q Q =.Q =.Q Q E Q Q Q Q =.Q E H 5               ",
"            5 8 E =.=.=.=.=.=.=.=.=.Q Q =.=.=.=.=.=.=.=.=.=.=.=.=.=.=.Q =.=.=.=.=.=.=.=.Q =.Q =.=.=.=.=.=.=.=.=.=.=.=.=.=.=.Q Q =.=.=.=.=.=.=.=.Q Q =.Q =.Q =.=.=.=.=.=.=.=.Q Q =.=.E 8 5               ",
"              3 A =.=.;.=.=.=.=.=.;.=.=.;.=.=.;.=.=.=.;.=.=.=.=.=.=.=.=.;.Q =.;.=.;.=.=.=.=.=.;.=.=.=.=.=.;.=.=.;.=.=.;.=.=.=.;.=.=.=.=.;.=.=.=.;.Q ;.Q =.=.=.=.=.Q ;.=.=.=.;.=.=.=.z 4                 ",
"                1 A =.;.;.;.;.;.;.;.;.;.;.;.;.;.;.;.;.;.;.;.;.;.;.;.;.;.;.;.;.;.;.;.;.;.;.;.;.;.;.;.;.;.;.;.;.;.=.;.;.;.;.;.;.;.;.;.;.;.;.;.;.;.;.;.;.;.;.;.;.;.;.;.;.;.;.;.;.;.=.z 1                   ",
"                  1 6 E ;.;.<.;.;.;.;.;.;.;.;.;.;.;.;.;.;.;.<.;.;.<.;.<.;.;.;.;.;.;.<.;.;.;.;.;.<.;.;.;.;.;.<.;.;.;.;.;.;.;.;.;.;.;.;.<.;.;.;.;.<.;.;.;.<.;.;.;.<.;.;.;.;.;.;.Q 6 2                     ",
"                    2 2 A Q ;.<.<.<.<.<.<.<.1.1.<.<.<.<.<.<.<.<.<.<.<.<.<.<.<.<.<.<.<.<.<.<.<.<.<.<.<.1.<.<.<.<.<.<.1.1.1.<.<.<.<.<.<.<.<.<.<.<.<.1.1.1.<.<.<.<.<.<.<.<.<.Q z o O                       ",
"                      0 X 2 6 D E E =.=.E =.=.=.=.Q =.=.=.Q =.=.Q Q ;.Q Q Q Q Q =.=.Q =.Q Q =.=.Q =.Q Q =.=.Q =.Q Q =.=.Q =.Q Q =.=.E =.=.=.=.=.E =.=.Q =.=.Q =.Q E T S 6 o O 9                         ",
"                            O X X . . o o o . o o o o o o o o o o o o o o o o o o o o o o o o o o o o O o o o o o o o o o o o o o o o o o . o o o o o . o o . o 1 . . X O                               ",
"                                                                                                                                                                                                        ",
"                                                                                                                                                                                                        ",
"                                                                                                                                                                                                        ",
"                                                                                                                                                                                                        ",
"                                                                                                                                                                                                        "
};
