/* XPM */
static char *bd6976409f7f4ff48b99f05a35ba7b6exQzEYkFqoth6wsE1[] = {
/* columns rows colors chars-per-pixel */
"64 64 201 2 ",
"   c #291D1D",
".  c #2C211F",
"X  c #2D2221",
"o  c #262728",
"O  c #322424",
"+  c #332826",
"@  c #372729",
"#  c #392629",
"$  c #352929",
"%  c #3C2A2C",
"&  c #3D322F",
"*  c #2A2C3C",
"=  c #393231",
"-  c #422A2E",
";  c #442E32",
":  c black",
">  c black",
",  c black",
"<  c black",
"1  c black",
"2  c black",
"3  c black",
"4  c black",
"5  c black",
"6  c black",
"7  c black",
"8  c black",
"9  c #313346",
"0  c #393D41",
"q  c #2E3850",
"w  c #343A53",
"e  c #483240",
"r  c #4D3B42",
"t  c black",
"y  c #533C44",
"u  c #593C45",
"i  c #533F49",
"p  c #484649",
"a  c #4C444C",
"s  c #4B494D",
"d  c #594146",
"f  c #55434C",
"g  c #5A444C",
"h  c #5C4C4F",
"j  c #474A51",
"k  c #4A4C54",
"l  c #584C55",
"z  c #5D4C54",
"x  c #4D5056",
"c  c #4E5259",
"v  c #5B5655",
"b  c #52545B",
"n  c #5B535A",
"m  c #55595E",
"M  c #644849",
"N  c #6E504D",
"B  c #71554B",
"V  c #634C53",
"C  c #655057",
"Z  c #65535A",
"A  c #6A5459",
"S  c #6B545A",
"D  c #61595A",
"F  c #6C6C5C",
"G  c #7B6154",
"H  c #5F5560",
"J  c #565A61",
"K  c #5B5D63",
"L  c #615C64",
"P  c #6A5B63",
"I  c #745D63",
"U  c #5D6167",
"Y  c #5E6169",
"T  c #646064",
"R  c #6A6466",
"E  c #6D6967",
"W  c #62656B",
"Q  c #6D646C",
"!  c #66696E",
"~  c #6C6B6D",
"^  c #766166",
"/  c #77676B",
"(  c #74666C",
")  c #7B696E",
"_  c #6B6771",
"`  c #666A73",
"'  c #6B6D75",
"]  c #6B6F7A",
"[  c #716C75",
"{  c #7A6E71",
"}  c #746E78",
"|  c #6C7176",
" . c #6E737C",
".. c #717375",
"X. c #797373",
"o. c #73747A",
"O. c #74797D",
"+. c #7B797C",
"@. c #81625A",
"#. c #8B6C5D",
"$. c #9C7F58",
"%. c #8C6E63",
"&. c #8B796E",
"*. c #847075",
"=. c #877B75",
"-. c #86747B",
";. c #857A7D",
":. c #A17D67",
">. c #AB975C",
",. c #B3915C",
"<. c #BAAD51",
"1. c #828371",
"2. c #A9886E",
"3. c #AA8970",
"4. c #A49175",
"5. c #D3B66D",
"6. c #DFD04E",
"7. c #DCCC58",
"8. c #E1C473",
"9. c #767781",
"0. c #757A83",
"q. c #7B7C84",
"w. c #7D7F88",
"e. c #897C81",
"r. c #907E82",
"t. c #7E8287",
"y. c #7D838C",
"u. c #7D8590",
"i. c #828385",
"p. c #82858D",
"a. c #8A8788",
"s. c #8B868A",
"d. c #868A8F",
"f. c #918587",
"g. c #918F88",
"h. c #828591",
"j. c #868C91",
"k. c #8A8D93",
"l. c #938E92",
"z. c #8C9294",
"x. c #8C959B",
"c. c #949393",
"v. c #94969A",
"b. c #93999E",
"n. c gray62",
"m. c #A19397",
"M. c #A29599",
"N. c #A4999B",
"B. c #979CA2",
"V. c #9B9EA2",
"C. c #A49EA1",
"Z. c #A99EA0",
"A. c #9DA3A5",
"S. c #9FA6A9",
"D. c #A5A4A6",
"F. c #A7A4A9",
"G. c #A4A9AC",
"H. c #ABACAD",
"J. c #B5A9AC",
"K. c #BABCAC",
"L. c #A7ACB0",
"P. c #AAADB2",
"I. c #ADB2B5",
"U. c #ADB2B8",
"Y. c #B3B4B5",
"T. c #B8B9B7",
"R. c #B3B5BA",
"E. c #B7B9BC",
"W. c #BABDBE",
"Q. c #C2BEB2",
"!. c #C3BCBD",
"~. c #B6BEC1",
"^. c #BABEC2",
"/. c #C0BEC0",
"(. c #BDC1C3",
"). c #C4C4C4",
"_. c #CAC3C5",
"`. c #CDC6C9",
"'. c #C4C9C9",
"]. c #CDCDCD",
"[. c #D0C6C9",
"{. c #D3CDCE",
"}. c #D0CFD0",
"|. c #CED1D2",
" X c #D3D5D5",
".X c #D7D6D6",
"XX c #D7DCDA",
"oX c #D9DADB",
"OX c #DBDBDC",
"+X c #DDDDDD",
"@X c #E1DDDE",
"#X c #E1E1DF",
"$X c #E2DEE0",
"%X c #E5E4E4",
"&X c #E9E9E6",
"*X c #E9E7E8",
"=X c #EDEDEC",
"-X c #EDF0EE",
";X c #F1EEF0",
":X c #F4F4F4",
">X c #FCFDFD",
/* pixels */
"3 3 3 3 3 3 3 3 3 3 3 3 3 3 3 3 3 3 3 6 3 3 3 3 3 3 3 3 3 3 3 3 3 3 3 3 3 3 3 3 3 6 3 3 3 3 3 3 3 3 3 3 3 6 3 3 3 3 3 3 3 3 3 3 ",
"3 3 3 3 3 3 3 6 3 3 3 6 3 3 3 3 3 3 3 3 3 3 6 3 3 3 3 3 3 3 3 3 3 3 3 6 3 3 3 3 3 3 3 3 3 3 3 3 3 3 3 6 3 3 3 3 3 3 3 3 3 3 3 6 ",
"3 3 3 6 3 3 3 6 3 3 3 3 3 3 3 6 3 3 6 3 3 3 3 3 3 3 3 3 3 3 3 3 3 3 3 3 3 3 3 6 3 3 3 3 3 3 6 3 3 3 3 3 3 3 3 3 3 3 3 3 3 3 3 3 ",
"3 3 3 3 3 3 3 3 3 3 3 3 3 3 3 3 3 3 3 3 3 3 3 3 3 3 3 6 3 3 3 3 3 : 3 : 3 3 3 3 3 3 3 3 3 3 3 3 3 3 3 3 3 3 3 3 3 3 6 3 3 3 3 3 ",
"3 3 3 3 3 3 3 3 3 3 3 3 3 3 3 3 3 3 3 3 3 3 3 3 3 3 3 > 6 < u V V V V z y 3 6 3 3 3 3 3 3 3 3 3 3 3 3 3 6 3 6 3 3 3 3 3 3 6 3 3 ",
"3 3 3 3 3 3 3 3 3 3 3 6 3 3 3 6 3 3 3 3 3 3 3 3 3 3 3 3 : : ) !.!.W.H.F.A : 3 3 3 3 3 6 3 3 3 3 6 3 3 3 3 3 3 3 3 3 3 3 3 3 3 3 ",
"3 3 3 3 6 3 3 3 3 3 3 3 3 3 3 3 3 3 3 3 3 3 3 3 3 3 3 > u I m.+X+XoX].'.e.A 7 < 3 3 3 3 3 3 3 6 3 3 3 3 3 3 3 3 3 3 3 3 3 3 3 3 ",
"3 6 3 3 3 3 3 3 3 3 3 3 3 3 3 3 3 6 3 3 3 3 3 3 3 3 3 : ^ ].XXXXoXoXOXOX'.Y.h > 3 3 3 6 3 3 3 3 3 3 3 3 3 3 3 3 3 6 6 3 3 3 3 3 ",
"3 3 3 3 6 3 3 3 3 6 6 3 3 3 3 3 3 3 3 3 3 3 3 3 3 3 3 : ( ]. X]..XoXoX+X|.W.V 3 3 3 3 3 3 3 3 3 3 6 3 3 3 3 3 3 3 3 3 3 3 3 3 3 ",
"3 3 6 3 3 3 3 3 3 3 3 3 3 3 3 3 3 3 3 3 3 3 3 3 3 3 6 : ^ }.|.)..XoXOXoX+X{.V 1 3 3 3 3 3 3 3 3 3 3 3 3 6 3 3 3 3 3 3 3 3 3 3 3 ",
"3 3 3 3 3 3 3 3 3 3 3 3 3 3 3 3 3 3 3 3 3 3 3 3 3 3 3 : ^ ].).A.G.G.I.Y.H.N.g 3 3 3 3 3 3 3 3 3 3 3 3 3 3 3 3 3 3 3 3 6 3 3 3 6 ",
"3 3 3 3 3 3 3 3 3 3 3 3 3 6 3 3 3 3 3 3 3 3 3 3 3 3 3 1 ^ }.V.0 o o 0 0 o o : 6 3 3 3 3 3 3 3 3 3 3 3 3 3 3 3 3 3 3 3 3 3 3 3 3 ",
"3 3 3 6 3 3 3 3 3 3 3 3 3 3 3 3 3 3 3 3 3 3 3 3 3 3 3 1 ^ }.W.v.g.i.x j ! ..y : 3 3 3 3 3 3 3 3 3 3 3 3 3 3 3 3 3 3 3 3 3 3 3 3 ",
"3 3 3 3 3 3 6 3 3 3 3 3 3 3 3 3 3 3 3 3 6 3 3 3 3 6 r 3 ^ `.oXoX.X XW b A.Y.V > 3 3 3 3 3 3 3 3 3 3 3 6 3 3 3 6 3 3 3 3 3 3 3 6 ",
"3 3 3 3 3 3 3 3 3 3 6 3 3 3 3 3 3 1 6 6 > 3 : : Z C.D.Q m ! v.+XoX.XI.H.~.R.g 1 3 3 3 3 3 3 3 3 3 3 3 3 3 3 3 6 3 3 3 6 3 3 3 3 ",
"3 3 3 3 3 3 3 3 6 3 3 3 3 3 3 3 3 3 3 < 6 i h g ( L.U.d.' k O.E.|.XX'.(.H.n.( h 3 3 3 3 3 3 3 3 3 3 3 3 3 3 3 3 3 3 3 3 3 3 3 3 ",
"3 3 3 6 3 3 3 3 3 3 3 3 3 3 3 3 3 3 6 : : P e.w.y.j.k.P.A.c c U R.OX'.(.O.K G.s.7 6 1 1 3 6 3 3 3 6 3 3 3 3 3 3 3 3 3 3 3 3 3 6 ",
"3 6 3 3 3 3 3 3 3 3 3 3 6 3 3 6 3 3 , A m.k.u.u.y. .0.I.A.m x m t.v.j.p.K m Y.A.P g > 6 3 3 3 3 3 3 3 3 6 3 3 3 6 4 3 3 3 3 3 3 ",
"3 3 3 3 3 6 3 3 3 3 3 3 3 3 3 3 3 3 : *.>XU.u.u.O.Y W I.A.m c U c j j j k m I.L.j.P > 6 3 3 3 3 3 3 3 3 3 3 3 3 6 3 6 3 3 3 3 3 ",
"3 3 3 3 3 3 3 3 6 3 3 3 3 3 3 3 3 3 : / oXU.x.j.t.Y W S.b.J m Y m c b b k m G.G.B.( : 3 3 3 3 3 3 3 3 3 3 3 3 3 3 3 3 3 3 3 3 3 ",
"3 3 3 3 3 3 3 3 3 3 3 3 3 3 3 3 < < : V k.P.~.V.p.Y Y j.j.W K Y K Y U K x b k.G.~.e.; > 3 3 3 3 3 6 6 3 3 3 3 3 3 3 3 3 3 3 3 3 ",
"3 3 6 3 3 3 3 3 3 6 3 3 3 3 3 3 < g f.l.j.B.G.h.0.O.O.O.] Y Y Y ' | Y U J K j.b.b.s.{ g 3 3 3 3 3 3 3 3 3 3 3 3 3 3 3 3 3 6 3 3 ",
"3 3 3 3 3 3 3 3 3 3 3 3 3 3 3 3 : I *X+Xk.h.h.` ] j.j.J c K Y W O.y.Y Y Y W j.t.Y k.Y.A 3 3 3 3 3 3 3 3 3 3 3 6 3 3 6 3 3 3 3 3 ",
"3 3 3 3 3 3 3 6 3 3 3 3 3 3 3 3 : I &X_.s j.U.z.9.Z z c c Y ] 0.] | Y Y W Y K ] p.X.S u 3 3 3 3 3 3 3 3 3 3 3 3 6 3 3 3 3 3 3 1 ",
"3 3 3 6 6 3 3 3 3 3 3 3 3 3 3 3 1 P  XY.p i.H.z.{ 7 3 s c K ] w.' U Y Y K J j K a.P : 3 3 3 3 3 6 3 3 3 3 3 3 3 3 3 3 3 3 3 3 6 ",
"3 3 3 3 3 3 3 3 3 3 7 3 6 3 3 3 1 i W e.T.R ; 3 7 1 6 a J K K W Y U Y K b k $ % r 6 1 3 3 3 3 3 3 3 3 3 3 3 3 3 3 3 6 3 3 3 6 6 ",
"3 3 3 3 3 3 3 3 3 3 3 3 3 3 3 3 > i _ q.b...v r 1 3 3 a s J K Y Y Y J J c p o r { V > 3 3 3 3 3 3 3 3 3 3 6 3 3 3 3 3 3 3 3 1 5 ",
"3 3 3 3 3 3 3 3 3 3 3 3 3 3 3 3 3 g 0.0.W t.l.g 1 3 6 1 r k J Y Y U c k k j + D R.e.> 6 3 3 3 3 3 3 3 3 3 3 3 6 3 3 3 3 3 3 3 6 ",
"3 3 3 6 3 3 3 3 3 3 6 3 3 3 3 3 1 g q.w.0.Q Z t 3 3 3 3 r j x c b c k k | 0...q.x._ < < 3 3 3 3 3 3 3 3 3 3 3 3 3 3 3 3 3 3 3 3 ",
"3 6 3 3 3 3 6 3 3 3 3 3 3 3 3 6 : g 0.h.p.n : > 3 3 3 3 r k k k c k k x t.b.b.z.w.L > > 3 3 3 3 3 3 3 3 3 3 3 3 3 3 3 3 3 3 > 3 ",
"3 3 3 3 3 3 3 3 3 3 3 3 3 3 3 3 1 g q.w. .z > 3 3 3 3 1 r k k k k k k x P [ 0.t.u.9.Z y 3 3 3 3 3 3 6 3 3 3 3 3 3 3 3 3 3 3 3 3 ",
"3 3 3 3 3 3 3 3 3 3 3 3 3 3 3 3 6 g q.q.K f t 3 3 3 3 4 3 k k k k k k k r r J | u.e.w.h 3 3 t 3 3 3 3 3 3 3 3 3 3 3 3 3 3 > t 3 ",
"3 3 3 3 3 3 3 3 3 3 3 6 3 3 3 3 1 y ! ! K f 3 > 3 3 6 1 M $.>.>.<.<.>.>.B 1 f L p.r.&.%.#.N > 3 3 3 3 3 3 6 3 3 3 3 3 3 3 3 3 3 ",
"3 6 3 3 6 3 3 3 3 3 3 3 3 3 3 3 1 u R ! J a 3 6 3 6 6 4 B >.5.8.7.6.8.5.G 4 1 h o.=.:.2.2.@.3 6 3 3 3 3 3 3 3 3 3 3 3 3 3 6 3 t ",
"3 3 3 3 3 3 3 3 3 3 3 3 3 3 3 6 1 M 4.=.w q 9 t 6 5 4 l D E g.K.1.F K.Q.~ a 3 6 u @.2.3.2.@.> > 3 3 3 3 3 3 3 3 3 3 3 3 3 3 1 3 ",
"3 3 3 3 3 3 3 3 3 3 3 3 3 3 3 6 1 d X.o.9.9.] i 3 u f J K m y.(.! j I.~.| s a 4 3 N #.#.%.N 3 3 3 3 3 3 3 3 3 3 3 3 6 3 3 3 1 3 ",
"3 3 3 3 3 3 3 3 3 6 3 3 3 3 3 3 4 2 * _ =X=X&XS a m W W J x t.E.v $ G.~.| x k a 3 1 < 3 3 3 3 3 3 3 3 3 3 6 6 3 3 3 3 3 3 > 3 3 ",
"3 3 3 6 3 3 6 3 3 3 3 3 3 3 3 6 : g w.G.=X=X&XS y K K m ! v.a.R 2 + T ~ i.d.m s a 4 3 3 3 3 3 3 6 3 3 3 3 3 3 3 3 3 3 3 3 3 3 1 ",
"3 3 3 3 3 3 3 3 3 3 3 3 3 3 3 3 5 S `.%X*X=X&XA r K K k o..Xc.  . . . + v.E.J k j p 6 3 3 3 6 3 3 3 3 3 3 3 3 3 3 3 3 3 3 3 3 4 ",
"3 3 3 3 3 3 3 6 3 3 3 3 3 3 3 3 : V M.!.*X&X&Xr.{ i.t.| +.D.X.. . . X + X.c.| ' ' z < 6 3 3 3 3 3 3 3 3 3 3 3 3 3 3 3 3 3 3 > : ",
"3 3 3 3 6 3 3 3 3 3 3 3 6 3 3 6 3 5 : / .X#X-X=X&X.X X'.c.% . . X X X X . = F.^.(.;.: 6 3 3 3 3 3 3 3 3 6 3 3 3 3 3 3 3 3 3 6 3 ",
"6 3 3 3 3 3 3 3 3 3 3 3 3 3 6 3 3 3 : / .X%X=X=X].1.X.~ v + . O % % X X . $ D E { C 3 6 3 3 3 3 3 3 6 3 3 3 3 3 3 3 3 3 3 3 3 3 ",
"3 3 3 3 6 3 3 3 3 3 6 3 3 3 3 3 3 1 : ^ {.%X=X=XQ.8 & $ + X O X ; : O O X . . # 1 1 3 1 3 3 3 3 3 3 3 3 3 3 3 3 3 3 3 3 3 3 3 3 ",
"3 3 3 3 3 3 3 3 3 3 3 3 3 3 3 3 3 3 3 y N N.+X&X#X{.).h $ $ O X ; > : ; O X X O O - 1 3 6 3 3 3 3 3 3 3 3 3 3 3 3 3 3 6 3 3 3 3 ",
"3 3 3 3 3 3 3 3 3 3 3 3 3 3 3 3 3 3 3 1 6 N..X&X;X=X%XD @ $ $ # ; 6 3 1 @ . . . X % 3 3 3 3 3 3 3 3 3 6 3 3 3 3 3 3 3 3 3 3 3 6 ",
"3 6 3 3 3 3 3 3 3 3 3 3 3 6 3 3 1 3 3 3 7 N.+X&X=X=X@XC O % ; 1 3 3 3 3 @ . . . . % 6 6 3 3 3 3 3 3 3 3 3 3 6 3 3 3 3 3 3 3 3 3 ",
"3 3 3 3 3 3 3 3 3 3 3 3 3 3 3 3 6 3 3 3 6 ^ f.XX=X=X&XH.X.& - 1 3 3 3 1 ; # O . X % < 6 3 3 3 3 3 3 3 3 3 3 3 3 3 3 6 3 3 3 3 3 ",
"3 3 3 3 3 3 6 3 6 3 3 3 3 3 3 3 3 3 6 6 6 1 1 [.;X=X=X>X).& # 6 3 3 3 3 : : O . X - 3 > 3 3 3 3 3 3 3 3 3 3 3 3 6 3 3 3 3 3 3 3 ",
"3 3 3 3 3 6 3 3 3 3 3 3 3 3 3 3 3 3 3 6 3 3 y `.=X=X=X>X/.7 - < 3 3 6 6 I ) % .   % 3 3 3 3 3 3 3 3 3 3 3 3 3 3 3 3 3 3 3 3 3 3 ",
"3 3 3 6 3 3 3 3 3 3 3 3 3 3 3 6 3 3 3 3 3 1 6 {.;X-X=X>X/.i : < 3 > 3 y !.+Xr     % 3 3 3 6 3 3 3 6 3 3 3 3 3 3 3 3 3 3 3 6 3 3 ",
"3 3 3 3 3 3 3 3 3 3 6 3 3 3 3 3 3 3 3 3 3 z P F.'.=X=X>X$XZ.) : 3 3 3 t n.E.+.R D g 1 3 3 3 3 3 3 3 3 3 3 6 3 3 3 3 3 3 3 3 3 3 ",
"3 3 3 3 3 3 3 3 3 3 3 3 3 3 3 3 3 3 3 3 3 _ p.y.A.%X=X:X>X>XJ.: > > 3 3 [ h.~.P.z.R 3 3 3 3 3 3 6 3 3 3 3 3 3 3 6 3 3 3 3 3 3 3 ",
"3 3 3 3 6 3 6 3 3 6 3 3 3 6 3 3 3 3 3 3 6 Q u.u.G.%X;X;X:X>XJ.> 3 3 3 3 [ u.x.q.C u 3 3 3 3 3 3 3 3 3 3 3 3 3 3 6 3 3 3 6 3 3 3 ",
"6 3 3 3 3 3 3 3 3 3 3 3 3 3 3 3 3 3 3 3 3 _ y.w.v.`.}.*X:X>X!.Z u > 3 3 } u.y.Q 3 5 3 3 3 3 3 3 3 3 6 3 3 3 3 3 3 3 3 3 3 3 3 3 ",
"3 3 3 3 3 3 3 3 3 3 3 3 3 3 3 3 3 3 6 3 3 Q u.` H i g [.:X>X>X=X{ 3 1 3 ' t.` l 3 1 3 3 3 3 3 3 3 3 3 3 3 3 3 3 3 3 3 3 3 6 3 3 ",
"3 3 3 3 3 3 3 3 3 3 3 3 3 3 3 3 3 3 6 u D o.y.H f 2 u /.:X>X>X:X*.3 3 t } y. .L 4 3 3 3 3 3 3 3 3 3 3 3 3 3 3 6 3 3 3 3 3 3 3 3 ",
"6 3 3 3 3 3 3 3 3 3 4 6 6 3 3 6 5 3 : z p.y.y.g 5 1 u _.:X>X>X:X*.3 3 t [ u.u._ 3 3 3 3 3 3 3 3 3 3 3 6 3 3 3 3 3 3 3 3 3 3 3 6 ",
"3 3 3 3 3 3 3 3 3 3 3 3 3 3 3 3 6 1 3 z h.y.q.u , : u J.@X>X>X:X*.3 3 3 Q +.p.[ f 3 1 3 3 3 3 3 3 3 3 3 3 6 3 3 3 3 3 3 3 3 3 3 ",
"3 3 3 3 6 3 3 3 3 6 3 3 3 3 3 3 > 6 3 z y.] Y y 1 < 6 7 -.;X>X:X*.3 3 3 t i q.9.Y g 3 3 3 3 3 3 3 3 3 3 3 3 3 3 3 3 6 3 3 3 3 3 ",
"3 3 3 3 3 3 3 3 3 3 3 3 3 3 3 3 3 3 6 l h.0.] n f 6 6 : C m.N.N.S : 3 1 > r 9.w. .L f 7 3 3 3 3 4 3 3 3 3 3 3 3 3 3 3 3 3 3 3 3 ",
"3 3 3 3 3 3 3 6 3 3 3 3 3 6 3 3 3 1 3 z p.h.t.` n 3 3 3 6 6 6 6 3 3 3 3 > y q.h.h. .K f 3 3 3 3 6 3 6 3 6 3 3 3 3 3 3 3 3 3 3 3 ",
"3 3 6 3 3 3 3 3 3 3 3 3 3 3 3 3 3 1 1 y V z l f y 3 3 3 > 3 6 3 3 3 > 1 6 3 h z z f f 3 3 3 3 3 6 3 3 3 3 3 3 3 3 3 3 3 3 6 3 3 ",
"3 3 3 3 3 3 6 3 3 3 3 3 3 3 3 3 3 3 3 3 3 3 1 3 > 3 4 3 3 3 3 3 3 3 3 3 3 3 < > 3 1 3 3 3 3 3 3 3 3 3 3 3 3 3 3 3 6 3 3 3 3 3 3 ",
"3 3 3 3 3 3 3 3 3 3 3 3 3 3 3 3 3 3 3 3 > 3 3 1 3 > 3 : 1 3 3 3 3 > 3 3 3 6 6 > 3 1 3 3 3 6 6 3 3 3 3 3 3 3 3 3 3 3 3 6 3 3 3 3 "
};
