/* XPM */
static char *_0e72905cb994d71ec5d77e615fa8aafFdYk5j9Uht78MIkR[] = {
/* columns rows colors chars-per-pixel */
"64 64 110 2 ",
"   c #242B43",
".  c #282F47",
"X  c #292F4A",
"o  c #27314B",
"O  c #2A324C",
"+  c #2E3653",
"@  c #2F3955",
"#  c #303752",
"$  c #323A56",
"%  c #343D59",
"&  c #37425F",
"*  c #39435E",
"=  c #374463",
"-  c #3A4564",
";  c #3C4966",
":  c #3B4768",
">  c #3C4969",
",  c #424C65",
"<  c #444E6A",
"1  c #484F69",
"2  c #44516C",
"3  c #4A536D",
"4  c #434F70",
"5  c #445171",
"6  c #495574",
"7  c #4B5A76",
"8  c #4E5B79",
"9  c #525A74",
"0  c #515E7D",
"q  c #51607D",
"w  c #5A667E",
"e  c #525F80",
"r  c #4F6081",
"t  c #556382",
"y  c #5A6684",
"u  c #576982",
"i  c #5B6A86",
"p  c #5B6788",
"a  c #5B6A89",
"s  c #5F718C",
"d  c #616C86",
"f  c #606F8B",
"g  c #62718D",
"h  c #667592",
"j  c #697593",
"k  c #6E7893",
"l  c #6E7B95",
"z  c #6C7D96",
"x  c #6B7E98",
"c  c #6E7C99",
"v  c #6F7E99",
"b  c #6D7C9A",
"n  c #6E7C9A",
"m  c #6F7C9A",
"M  c #6E7D9B",
"N  c #6F7E9B",
"B  c #707B96",
"V  c #707D97",
"C  c #727D97",
"Z  c #707D9B",
"A  c #717E9A",
"S  c #6F809A",
"D  c #73819C",
"F  c #74829D",
"G  c #75839D",
"H  c #7685A1",
"J  c #7886A0",
"K  c #7887A1",
"L  c #7B89A2",
"P  c #7E88A3",
"I  c #7D8CA6",
"U  c #7F8DA9",
"Y  c #808AA6",
"T  c #818FA8",
"R  c #808FAA",
"E  c #8190A7",
"W  c #8291A8",
"Q  c #8590AB",
"!  c #8690AB",
"~  c #8795AB",
"^  c #8392AC",
"/  c #8593AD",
"(  c #8595AD",
")  c #8794AE",
"_  c #8596AE",
"`  c #8994AD",
"'  c #8896AC",
"]  c #8995AF",
"[  c #8A94AE",
"{  c #8695B1",
"}  c #8896B2",
"|  c #8A99B0",
" . c #8B9AB3",
".. c #8C9AB1",
"X. c #8C9BB1",
"o. c #8D99B3",
"O. c #8D9BB3",
"+. c #899BB4",
"@. c #8A9BB4",
"#. c #8B9BB4",
"$. c #8B9BB5",
"%. c #8D99B5",
"&. c #8E9AB4",
"*. c #8D99B6",
"=. c #8C9AB6",
"-. c #8E9AB7",
";. c #8D9CB6",
":. c #8E9CB9",
">. c #929EB7",
",. c #909DB9",
/* pixels */
"O O O O X O .                     . . O O O X O O O O .                   . . . X X O O O X X                       o o o o o o ",
"O % 1 3 1 2 < , , , , , , , , , , < 3 1 1 < $ $ # $ + + . $ , , * , , , , , 1 1 1 1 1 1 1 1 1 1 , , , , ; , , , * , 2 > 2 2 * # ",
"O 3 Q ` { { { { ! ` ) ` ` ` R ! T [ ` Q ! Y < - = * % = * w ) ) ~ ~ ~ Q ` ` ` ` { [ { { [ { { T ~ ~ W ) ) ) ) { ~ ~ ~ _ ~ ~ w o ",
"O 3 ` &.&.&.+.+.....+...+...` ,.>...>.>.>.R 3 * = = ; - ; y  . .| X.X.>.O.O.` >.*.*.*.+...&.,.&.|  .|  .;...#.+... .#.#.O...d O ",
"O , k B A A M x z M S M z z z A M z V V z A z M w = , 6 e p M A x x x x A z A c x x c M A M D I X.E i i h D M M z M D z D V 9 O ",
". * y y p p u i p u u i p p p p i y u u u d ! :.j = : e f p p p p u a u a u i p i a p p a p a L O.G , = 7 i a a i i u u w u 3 O ",
". * u i p i i i p u i i a i s g g g g f y g ) &.j - : y p p p i i u u a u i i i a a i a a a i M ~ G 2 , q i a a i i i i y d 1 . ",
"  % u p p i i a i i i i w u D ) ) ~ ) S y g { :.j = > t p a a p a a a a a i i i i a i i i a i s g g w u p i i i i i i u p y <   ",
"  % i a a i a a a i p u i i G ..+.+.&.G i g ! ;.h : > t s i i i a i a i i a i i i i i i i s i i i i i i a a a a i i a a a i -   ",
"  % u a a i i i a i p i i i l G G G G h u s A G a : > t i i i i a i a i i a i a s i a i i i i i i i s i a u a a i i a a u a >   ",
"  % u a a i u a i i i a i w i i u p i i u i i y 7 : > t a i u i i i i a i i a i i a i i a u a a i a a u a i u a i a a u i u , X ",
"  % u a i i i g g u u u i i u i i i i i p u g g 8 = > t a i i i a a i i a i i a i i i a a a i i i s s s a w w a i a a a a i ,   ",
"  % i a a i h E ) u > 6 u i a a a a p i y g L { s : : t a i i i i i i a i i i i a i s i i i i a i s U +.a ; > w i a a a i a ,   ",
"  % y a a u h | +.u = > p i a a a a a i i s { :.h : > t p p i i i a a i i a a i a i i i i i i i i h } :.s = > s i a a i i i ,   ",
"  % y y a i g G G u 2 7 p a a a a a i i i a H L a : : t p p p g i i i i i i i i i i a i a a i i a h +.&.a & ; u i i s i i i ,   ",
"  = y p d w i a a u u i i i i i i i i i u p a a 7 : > t p p p a i i i i i i i i a i i a i i a i a h { +.a = > w u i i u i u 1   ",
"  % y y d y y p a a i i i i a i i u a a a a u t 6 - : e e a p p a u u a i i i i a a a a i i a a a h { } a = > u i i a t a i > . ",
"X * p p y d d a a a a a a a a a a a a p a u 7 > < - - 4 4 e p e 5 > 7 p i a a a a i i i a a i a a a h h a e t a i i a a a a 2 . ",
"X - p p d y i p a p a a a a a a p p a p a t > : - - - - - 6 p e > : 5 a a a a a a u i i i i a a a a a a a a a a a a a a a i 2 O ",
"O * 8 0 0 0 0 0 8 e e e 8 e e e r e e r r r > : - - - = - 4 e e > = 4 8 u r r 0 q q q 0 0 0 8 8 r r r r e e e 8 0 0 r e q 0 , O ",
"X $ - > : : : ; > ; > > ; > ; ; > : > : : : = : = - - - = = : - : = : : ; > - - ; ; ; ; - - ; - : : > : : : > ; - : : : > , % O ",
"+ $ - : : ; ; ; > > ; ; ; > ; ; ; > ; ; : : : - ; ; ; ; ; ; ; ; : > : > ; ; - - = = = = - > ; > > > > > ; > ; > ; > > : ; - % O ",
"O , B A A A A C M A A M A A D A M A A M A A M x D S V z M V S D A M M S z 3 = ; ; = = = 6 x M S N N N N S S S G A A A A V V 9 O ",
"X 1 ..o.>...o.>.:.&.&.&.&.&.O.&.>...&.:.&.:... .;.&.&.O...>.&...&.#.#.#.+.q & & = & ; = 8 +.:.:.&.+.+.=.+.&.+.&...>...>.>.>.d O ",
"O 3 Y R W W ! W W W W W W W W W Q  ... .T E E E W ) E E W W W ) ! W W W E i 7 3 = ; ; ; 0 U U U Q E Q E E E E W T W W W W W w # ",
"O - d d g a a g a g g a f f a f h { +.G i g a f g i i s f g s i a s g a g L ) M ; ; 8 i i s s s i g p a g g i a f p a g g a 2 o ",
"X * y y u i p p i y u i i y i y g { &.D u u i u i y i i u u u u u i i i i U O.H > ; 0 a i i i i i i y i u u a u p w i i u w 1 O ",
"  % w d p p u p i i u a i u i i a M S h i u p p i i i i p i i y i i y i i U ;.F ; = q i i i u a i u u i i i i F G g i i i i 1   ",
"  % w d y p a a i i a i i a i a a i i i a i i i i i i i a i a a a i i i i I O.G ; - 0 i g i i i i i i i a i s ) +.S a a a i 2   ",
"  % y y p p a a i i a a a a i a a a i a a a a a i i a a a a a a a i i u d E O.G ; - 0 i i i a a i i a i a i h U ) S i a a i ,   ",
"  % w d a a a a a a a a a a a a a a a a a a a a i a a a a a a a a i i w w I O.G ; - q a i i i a a a a a a a a g s a i a i i 2   ",
"  % w d a p a a i i p a a p a a i a a a a a a i i i a a a i a a a a s w d E O.G ; = q i i i i a a i a a a i i i i a a i i i ,   ",
"  % p a s i i i p p p a a p p a a i i i i a a i s i i i i i a a a a i i w W O.G ; - 0 i i a u a a a a u i a i i i a a a u i >   ",
"  % u p i i u u u a y a a p a a i i a a i i i i i i a a a a a p a a i i i W O.G ; - 0 i i i a a u a i i i a a i i i a a a i >   ",
"  % u a i i a s a i p p y t p a a i i i a i i a i i i i i a i p a a a i u U >.G ; = 0 i a a a s a s i i i i i i i a a i u s ,   ",
"X % i a a i s I W i 5 > 5 > 8 i i i a i i a p i i i a i i i i a a a i i a U ;.G ; = q i i a a S U H s i i i i i i a a a i u ,   ",
"  % y p i i h #.:.p = = : : 7 i i i i a i a i i i p i p a p i p a a i i s I >.G ; - q a i a a K :.) a a i a p i u a a i i i 1   ",
". % u p i i s H I p 2 < > 5 e a i a a i p i i i t 8 q 8 9 q i i i i i w i x S g ; ; 6 q q a a x K H a i i i i i a a a a i a , X ",
"X * y p i i u p p p p a p a p a i i i i i i i i 8 ; = = = 6 i i u i i i i 2 ; ; - ; - - > a a a a a i a a p i i i a a a i a 2 O ",
"X * y p p p u p u p y p p p y a i i i a u p p p 6 = = = = 6 p p u p i y y 2 - ; = - ; > > i i y a a u y p i i i u a i i i u 2 O ",
"X % 1 4 1 4 < 4 5 5 5 5 < 5 5 5 6 5 > 5 5 > 6 5 > > - = - > 2 2 2 3 2 5 5 > = : : : : = ; 2 5 5 5 4 5 < 5 4 5 5 > 5 > 5 5 6 = O ",
"X $ - - - & - = = = - = = = - - - - - : : = : = - - - - > = = = & = = = = - > = = = = = = = - - = = - = = = - - - - = : : - @ + ",
"O = 8 0 8 9 8 9 8 8 8 8 8 8 < - - : - = : > 8 8 8 9 7 7 7 8 8 8 8 8 8 8 8 8 8 8 8 8 6 8 8 8 8 8 0 8 8 8 8 0 9 8 8 8 8 8 8 e < X ",
"X 3 T } { { { { ) ` ` ` ` ) p ; - - - - : > I { ) ` ` ) { { { { | { | { { { ) ) ) { { { ~ _ ) ) [ { [ } [ { } ~ #.{ +.{ { &.p O ",
"O 6 } ..*.+.&.+. . . .| +...i ; ; ; = ; = 5 U #. . . . .+.+.+.+.+.+.+.&.=.=.O.#. .#.|  .#. ._  .+...&.+....... .;...&.+.*.=.d O ",
"O : M M N c z M x D x S z S z x g > ; 2 7 e j x M z z S z l A x M M x z N ! #.I i i x S S S S S z V A l z D z D M M x A b b 0 O ",
"O * u p p u u p i i u i u i K :.I 2 & 7 i u a i i i u u p u i i i u u u a U #.F > ; 8 i w u u i i u u p u i u i u u u u y i < X ",
"o & u i i p u u i i i i i i D &.U 2 * 7 i p u p i i i i p i i i a i i y i K _ S 2 > q u i i i i i i u p i u i y y y i u y y < X ",
"  % u p i i i p p i i i i i L :.U > > 7 s u a a u a a a i s i i i i a i i a g s u i i a i a a i i a i i i i i i i i a u a i >   ",
"  % u u i y u y i i i a i i H :.U > ; 7 a s a a a a a a i a i i a a i i i i p i i i i i i i i a i i a i i a i i i i a a a u ,   ",
"  % u i M G z i a a i a a i h H x > = 7 a a a a a u u a i i a i i i a a i i i a a i i i a i i i a s G G D H x 0 6 r a a i i ,   ",
"  % u p I ..R g i i i a i i i i u > = 7 a a a u a a a a a i i i i a a i a i a i i p i i s i a i a h { :.:.:.U > = 6 a a i u 2   ",
"  % y f K } I i a i i i i i a a t > = 7 i i i i a u a i i a i a i i a i i a i i i i a i a i i i a h U +.+.} I 5 - 7 a i i i ,   ",
"  % y i g f g i i i a a i a i a t > = 7 i p i i a a i a i i a i a i a i i a i a a i a i i i a i i a s h h h g t u u a i s u ,   ",
"  % w i p u i i i a i i p a a a t : = 7 i i p p a i i i a a i i i i i i i i a i i a i i i a i i p i i i a a i i a a a a i u , X ",
"  % w i u i i i i i p i i i i a u > - 7 i i p a i a a i i i i a a a i a a i i a i i i a i a i a i i i i a a i y u i a i i y ,   ",
"  % w p u u u i i i i d y y d p e 4 - 6 p p a a a a a a a a a p a a a a a a a i p p a i i u i i a a i a a a y d i i a y i i ,   ",
"  % u p i i u u i i i p i d y p e : = 6 y p p a a a a a a a a p a a a a a a a i a p p i i u i i a a a a a p p i u i a p i u <   ",
"o & i a i i t 5 2 t p p p p 0 4 4 : : : 4 4 p p a a a a a a p p a a a a a a a a p p d f u 5 > r a i i i i i i i a a a a i y 1 X ",
"O = i a i s 0 > - 8 a p a p 6 = - : - : = : e p a a p a a p f e a a i a a a a a p p p p t : > 0 a a s i i a i i a a a a p i 3 O ",
"+ & r e q q 8 ; : 7 0 0 e 0 5 - - - - - - - 8 0 r e e e e e 0 e e 0 0 0 t 0 0 e e e e e 8 > ; 6 q q q q 0 0 0 q e e e e t 0 , O ",
"o + : : ; ; ; ; : : ; - - > - - - - - - - - - , : : : : - - , , , - , : - - : : : : : : - = ; ; ; ; ; & - - , - : : : : - ; % X ",
"O + & = - - * * * - * - * * = - - - - - - - - - - - - - - - - - * * * = - - - - - - - - = - * * * * & & * - * * - - - - , * % # ",
"X O $ $ # # $ # # # # # # # # + # + $ % + $ $ # $ % # # + + # + + + @ # # + $ $ % @ $ $ % % $ @ @ # @ @ # # # # + + $ $ $ $ # O "
};
